<?xml version="1.0" standalone="no"?>
<!DOCTYPE svg PUBLIC "-//W3C//DTD SVG 20010904//EN"
 "http://www.w3.org/TR/2001/REC-SVG-20010904/DTD/svg10.dtd">
<svg version="1.0" xmlns="http://www.w3.org/2000/svg"
 width="534.000000pt" height="204.000000pt" viewBox="0 0 534.000000 204.000000"
 preserveAspectRatio="xMidYMid meet">
	<rect width="100%" height="100%" fill="white"/>
	<g transform="translate(0.000000,204.000000) scale(0.100000,-0.100000)"
fill="#3790bf" stroke="none">
<path d="M566 1590 c-34 -11 -66 -38 -66 -57 0 -8 14 -26 31 -40 30 -25 30
-28 24 -87 -10 -98 -33 -222 -69 -387 -43 -190 -64 -353 -50 -377 17 -28 95
-62 142 -62 92 0 272 116 406 262 87 94 194 239 231 312 33 66 33 126 -1 194
-33 66 -77 102 -189 157 -141 68 -377 112 -459 85z m278 -135 c240 -60 287
-129 207 -301 -78 -166 -230 -327 -403 -427 -70 -41 -82 -37 -74 21 3 27 38
175 76 331 39 155 70 295 70 310 0 16 -10 37 -25 51 -50 47 2 53 149 15z"/>
<path d="M4554 1573 c-20 -15 -32 -47 -112 -323 -80 -273 -112 -405 -112 -462
0 -93 130 -188 257 -188 71 0 178 29 217 58 46 35 50 47 23 76 l-22 25 -110
-24 c-123 -27 -175 -31 -193 -13 -36 36 13 241 144 601 30 81 54 160 54 176 0
47 -29 73 -86 78 -27 2 -54 0 -60 -4z"/>
<path d="M1815 1524 c-107 -56 -144 -106 -282 -379 -168 -333 -194 -393 -181
-420 16 -31 50 -55 80 -55 30 0 67 38 100 104 31 63 57 85 118 102 30 9 108
32 173 51 78 23 122 32 128 26 18 -18 49 -156 49 -215 0 -64 24 -102 71 -113
62 -15 76 64 39 217 -13 51 -24 151 -31 262 -17 294 -38 376 -109 423 -44 30
-93 29 -155 -3z m111 -156 c5 -23 19 -251 19 -308 0 -1 -290 -50 -296 -50 -14
0 48 128 117 242 62 102 105 148 141 148 6 0 15 -15 19 -32z"/>
<path d="M3806 1540 c-84 -26 -184 -203 -316 -566 -57 -155 -66 -171 -102
-183 -53 -19 -19 -71 46 -71 88 0 132 42 186 178 18 45 41 87 51 92 10 6 44
10 76 10 32 0 95 6 140 14 74 12 83 12 87 -3 8 -25 55 -282 58 -316 3 -25 10
-32 45 -44 34 -12 48 -13 83 -2 l42 12 -6 42 c-4 23 -22 107 -41 186 -39 162
-42 196 -18 231 16 22 16 24 -2 34 -37 22 -55 47 -61 84 -10 64 -104 241 -144
273 -40 31 -83 41 -124 29z m127 -376 c-14 -12 -200 -30 -210 -21 -6 7 35 99
84 185 l35 64 53 -109 c44 -90 50 -110 38 -119z"/>
<path d="M2622 1391 c-41 -43 -118 -178 -163 -281 -64 -149 -149 -381 -149
-407 0 -40 51 -83 98 -83 47 0 54 7 77 80 24 77 156 412 168 428 7 9 19 -8 42
-63 40 -90 50 -104 92 -122 61 -25 96 -17 152 33 29 26 55 44 58 40 3 -3 -11
-135 -31 -293 -52 -410 -49 -483 20 -483 39 0 54 52 109 380 19 118 56 322 81
452 27 139 44 248 40 263 -8 33 -61 65 -108 65 -36 0 -42 -5 -123 -107 -47
-60 -99 -118 -115 -131 l-29 -23 -5 23 c-3 13 -10 57 -16 98 -17 118 -26 138
-68 150 -66 18 -101 13 -130 -19z"/>
</g>
</svg>
